<svg xmlns="http://www.w3.org/2000/svg" xmlns:xlink="http://www.w3.org/1999/xlink" viewBox="0 0 248 358.48"><defs><linearGradient id="a" x1="24.08" y1="226.07" x2="248" y2="226.07" gradientUnits="userSpaceOnUse"><stop offset="0" stop-color="#4db0bf"/><stop offset="0.17" stop-color="#56b5c1"/><stop offset="0.45" stop-color="#70c1c6"/><stop offset="0.81" stop-color="#99d4ce"/><stop offset="1" stop-color="#b1e0d3"/></linearGradient><linearGradient id="b" x1="24.08" y1="226.15" x2="247.93" y2="226.15" gradientUnits="userSpaceOnUse"><stop offset="0" stop-color="#437da6"/><stop offset="0.23" stop-color="#4c86ab"/><stop offset="0.61" stop-color="#66a0b7"/><stop offset="1" stop-color="#87c1c7"/></linearGradient><linearGradient id="c" x1="60.8" y1="217.03" x2="168.29" y2="217.03" gradientTransform="translate(107.55 -61.9) rotate(21.35)" xlink:href="#a"/><linearGradient id="d" x1="60.83" y1="216.99" x2="128.52" y2="216.99" gradientTransform="translate(107.55 -61.9) rotate(21.35)" gradientUnits="userSpaceOnUse"><stop offset="0" stop-color="#5199b3"/><stop offset="0.34" stop-color="#56a1b7"/><stop offset="0.85" stop-color="#64b7c3"/><stop offset="1" stop-color="#69bec7"/></linearGradient></defs><path d="M225.73,241.1C215.6,200,218,175.32,195.65,140.61c-3.06-4.86-6.39-9.63-10.81-13.07a114.75,114.75,0,0,0-9.59-7.17c-.62,4.83-6.92,8.62-14.61,8.62-8.1,0-14.67-4.21-14.67-9.41a6.48,6.48,0,0,1,.19-1.45c-7.87,3.1-14.73,9.32-22.63,18C108,153.07,103.75,169.5,95.66,180.4c-21.48,29-48.61,40.9-71.58,105,12,14.71,28,25.31,44.93,32.4s34.87,10.9,52.89,13.43c22.23,3.14,45,4.26,67-.29s43.51-15.23,59-33.07C249.36,284.23,229.12,254.84,225.73,241.1Z" fill="url(#a)"/><path d="M160.64,129c7.69,0,14-3.79,14.61-8.62-4.33-2.66-9.36-4.47-17.05-4.47a32.4,32.4,0,0,0-12,2.23,6.48,6.48,0,0,0-.19,1.45C146,124.78,152.54,129,160.64,129Z" fill="#ffebdb"/><polygon points="156.13 105.36 154.25 122.22 166.78 122.22 163.28 102.65 156.13 105.36" fill="#ffebdb"/><path d="M172.14,315.44c.74,6.94,1.22,14,1.42,21.05.14,6,.07,12.32-2.92,17.24a9.47,9.47,0,0,1-5.71,4.63c-3.4.68-6.8-1.71-8.63-4.85s-2.31-7.09-2.52-10.82a81,81,0,0,1,1.09-18.59c.61-3.36,1.43-6.87,3.26-9.63s4.83-4.93,8-4.7A7.07,7.07,0,0,1,172.14,315.44Z" fill="#ffebdb"/><path d="M162.69,306.46a121.32,121.32,0,0,1-.14,25.84c-.91,7.95-2.85,16.34-8.5,21.48-3.09,2.74-7.91,4.13-10.84,1.13a11.05,11.05,0,0,1-2.33-4.65c-2.79-9.36-2.6-19.54-1.33-29.24.85-6.67,2.45-13.68,6.94-18.19a10.77,10.77,0,0,1,4.86-3c5-1.31,10.4,2.87,11.59,8.31C162.91,308.24,162.86,308.28,162.69,306.46Z" fill="#ffebdb"/><path d="M188.92,331c22-4.56,43.51-15.23,59-33.07-5.1-5.23-11.69-8.89-18.36-11.43-9.85-3.65-20.19-5.3-30.11-8.66-29-9.77-53.09-35.23-63.22-66.51-9.86-30.38-6.19-65.69,9.45-93-7.68,3.13-14.41,9.33-22.16,17.76C108.1,153,103.82,169.42,95.66,180.32c-21.55,29-48.61,40.91-71.58,105.11,12,14.71,28,25.31,44.93,32.4s34.87,11,52.89,13.43C144.13,334.4,166.9,335.52,188.92,331Z" fill="url(#b)"/><path d="M168.57,230.88c-.63,3.66.67,7.37,2,10.74,1,2.55,2,5.16,3,7.7a7.38,7.38,0,0,1,.65,2.87,3.65,3.65,0,0,1-4.58,3.11c-2.28-.53-4.17-2.38-5.94-4.29a31.75,31.75,0,0,1-6.4-8.84,16.82,16.82,0,0,1-1-11.63c1.23-3.77,4.61-6.62,7.73-5.71C166.45,225.51,169,228.68,168.57,230.88Z" fill="#ffebdb"/><path d="M150.07,135.69c2.42,12.72-.16,26.44,2.38,39,4,19.26,19.12,32.75,21.54,52.4a10.07,10.07,0,0,1,0,3.1,6.68,6.68,0,0,1-1.66,2.94c-3.1,3.53-7.36,4.85-11.46,6-13.53,3.77-27.55,6.5-41.16,3.81a46.29,46.29,0,0,1-33.48-26.6c-5.41-12.21-5.93-27.25-3.51-41.13S90.3,148.51,95.82,136c2.94-6.64,18.93-20.4,24.88-21.15,8.39-1,17.29-3,22.77,4.77A41.84,41.84,0,0,1,150.07,135.69Z" fill="url(#c)"/><path d="M119.7,243a48.58,48.58,0,0,0,6.29.88c-.85-10.88-3.93-21.55-6.36-32.12-3.43-15-5.56-30.94-3.21-46.49s9.89-30.63,21.38-37.28c2.83-1.66,6-2.76,9-2,.11,0,.21.08.32.08a33.59,33.59,0,0,0-3.62-6.52c-5.49-7.78-14.38-5.79-22.77-4.77C111,116.43,101,125.43,95.88,136c-5.52,12.49-10.69,25.4-13.11,39.27s-1.9,28.91,3.51,41.12A46,46,0,0,0,119.7,243Z" fill="url(#d)"/><path d="M162.19,5.14c7.9,2,15.05-3.46,19.94,3.16a65.55,65.55,0,0,1,12.64,43.11c-.23,3.09-.6,6.25.3,9.26.9,2.78,2.86,5.12,3.84,7.9,1.5,4.29.37,9.1-1.43,13.32-5.8,13.47-18.51,23.7-32.81,27s-29.94-.23-42.36-8.35C105.53,88.28,97,65.71,101.62,45.47,104,34.71,109,36.29,115.39,27.26,121,19.44,127.35,11.84,135.7,7S153.54,2.88,162.19,5.14Z" fill="#ffebdb"/><path d="M193.68,18.55c-4.76-7.34-7.42-12.14-16.26-15.16A53.76,53.76,0,0,0,161.28.09a46.46,46.46,0,0,0-19.82,4.05c-16.6,7.21-27.82,22-33.05,37.89a49.58,49.58,0,0,0-1.46,5.7c-11,14.55-22.13,29-36.65,40.7-13.45,10.84-29.74,19.49-39.19,33.36-6.38,9.4-9,21.14-5.54,31.64A32.18,32.18,0,0,0,48,173.88c-8.37,6-18.6,10-28.82,13.32C13.35,189.12,7.28,191,3.06,195a8.85,8.85,0,0,0-2.92,5c-.31,2,.61,4,1.61,5.9,6.23,11,19.6,18.53,33.35,18.74a17.25,17.25,0,0,0,8-1.38c3.08-1.51,5.08-4.25,6.84-7a93.66,93.66,0,0,0,13.22-35.41,58.27,58.27,0,0,0,9.14.34c8.84-.28,17.68-1.1,26.06-3.71,19.51-6.11,34-21.69,41.34-38.92s8.6-36.1,8.22-54.49c-.08-4.33-.31-8.72-.54-13a17.68,17.68,0,0,0,6-.75c5-1.58,13.48-9.2,16.7-12.9,10.15-11.6,17.52-.42,16.14-15.1,8.53,5.42,4.54-4.81,8.58,2C200.56,39.47,197.75,24.82,193.68,18.55Z" fill="#787575"/><path d="M55.08,183.35a11.48,11.48,0,0,0,2,.35c-2.15-4.4-7.61-6.32-13.14-6.94.31-.27.54-.54.77-.75C37,180.81,28,184.25,19.12,187.13,13.28,189.05,7.21,190.9,3,194.88a8.5,8.5,0,0,0-2.92,5c-.31,2.06.61,4,1.61,5.9a33.18,33.18,0,0,0,3.46,4.94c10.45-7.14,22.36-13.45,35.2-11.87,4.07.48,8,1.71,12.06,1.78a15,15,0,0,0,5.77-1.1q1.83-4.93,3.22-10.09A23.77,23.77,0,0,0,55.08,183.35Z" fill="#6b6066"/><path d="M163.66,22.74C169,16.84,174.42,10,175.19,2.63A53.51,53.51,0,0,0,161.28,0c-6.84-.2-19.64,1-25.79,3.71C119.56,10.65,109,20.61,101.68,34.62,90.25,56.38,84.3,77,70.3,88.36,56.85,99.2,40.56,107.85,31.11,121.72c-6.38,9.4-9,21.14-5.54,31.71a32.21,32.21,0,0,0,21.52,20.18c5.76-6.52,10-14.9,13.6-22.58C71.14,129.2,83.36,108,99,88.91,118.56,65.3,142.92,45.39,163.66,22.74Z" fill="#6b6066"/><path d="M62.3,177.86a55.59,55.59,0,0,1,46.5.69,2.08,2.08,0,0,1,1.07.82c.46.69.08,1.58-.38,2.34a97,97,0,0,0-7,16.06c-1.53,4.73-2.92,9.81-7,13.11-5.07,4.18-13.22,4.25-19.59,1.78s-11.38-7.07-16.14-11.53c-3.61-3.43-7.46-7.48-7.07-12.22C53.24,183.63,58.62,179.58,62.3,177.86Z" fill="#ffdd63"/><path d="M56.85,186.37c7.07-1,14.29.55,21.05,2.68a66.07,66.07,0,0,1,13.53,5.77,20.05,20.05,0,0,1,2.07,1.37c.31.27.7.62.7,1,.07.69-.85,1.17-1.62,1.1a4.49,4.49,0,0,1-2-1,26.94,26.94,0,0,0-7.6-3.64,15,15,0,0,0-4.61-.62c-2.23.07-4.31,1-6.54,1.3A16.58,16.58,0,0,1,57,189.6a3,3,0,0,1-.92-1.72C56.08,187.27,56.54,186.44,56.85,186.37Z" fill="#f5be40"/><path d="M49.7,180.68c1.62-13.52-5.76-27.66-18.44-35.15a82.82,82.82,0,0,0-12.91-5.83c-2.46-1-5-1.92-7.45-2.88a5.16,5.16,0,0,0-1.39-.35c-1.61-.06-2.69,1.51-3.23,2.89-3,7.82-1.22,16.47-2.3,24.71-.46,3.7-1.54,7.27-2,11a6.89,6.89,0,0,0,.15,3.29,7.06,7.06,0,0,0,3.08,3.16,38.88,38.88,0,0,0,23.21,6c5.38-.34,10.83-1.78,16.06-.55a7.1,7.1,0,0,0,2.69.34C50,186.79,49.39,183,49.7,180.68Z" fill="#ffdd63"/><path d="M44.63,177.93a92.15,92.15,0,0,0-25.74-18.12,10.35,10.35,0,0,0-5.07-1.3,1.14,1.14,0,0,0-.85.34c-.38.55.38,1.17,1.08,1.44a20,20,0,0,1,8.83,7.14c.77,1.17,1.39,2.4,2.15,3.5A28.57,28.57,0,0,0,30,176.35,24,24,0,0,0,36.56,181a15.39,15.39,0,0,0,7.46,1.1c.69-.07,1.61-.14,2-.76C46.63,180.33,45.32,178.62,44.63,177.93Z" fill="#f5be40"/><path d="M49.09,174.36c-2.54.55-5.23,5.7-6.84,9.2-.92,2-2.69,3.36-1.31,5.22.92,1.23,9.15,7.48,12.6,5.21,2.46-1.64,2.92-3.64,3.54-5.9.38-1.3,2.3-6.8,1.84-8.37C58.54,178.41,51.78,173.81,49.09,174.36Z" fill="#ffdd63"/><path d="M53.54,194c2.46-1.64,2.92-3.64,3.54-5.9.38-1.3,2.3-6.8,1.84-8.37,0-.14-.15-.28-.3-.48a.63.63,0,0,0-.39.13,1.85,1.85,0,0,0-.46.83,8.9,8.9,0,0,1-2.61,4.39,9.34,9.34,0,0,1-5.69,1.85,61.85,61.85,0,0,1-6.22-.41,5.48,5.48,0,0,0-1.85.07,3.35,3.35,0,0,0-.84.34,2.1,2.1,0,0,0,.3,2.27C41.86,190,50.09,196.26,53.54,194Z" fill="#f5be40"/><ellipse cx="177.57" cy="71.81" rx="3.76" ry="6.77" fill="#504d7a"/><path d="M164.05,86.79l2.08,3.94,1,1.92a7.29,7.29,0,0,0,.51,1c-.11-.15.06,0,0,.06s.11-.44,0-.13l.38-.67c1,.07,1.26,0,.82-.22l-.17-.1c-.17-.1-.33-.21-.49-.32s-.53-.39-.78-.6c-.63-.52-1.24-1.07-1.85-1.61a16.62,16.62,0,0,0-4-2.83,1.57,1.57,0,0,0-1.82.24,1.53,1.53,0,0,0-.23,1.82l1.89,3.11.89,1.46.51.83.25.42c.16.3.17.27.06-.1l.2-.76-.07.13.54-.53-.12.06.76-.2c.53.28.67.33.44.14l-.25-.22-.33-.29-1-.77c-.65-.52-1.31-1-2-1.5a36.58,36.58,0,0,0-4-2.42,1.51,1.51,0,0,0-2.2,1.69,8.87,8.87,0,0,0,1.81,3.43l2.78,3.61.54-2.06-.1.06.76-.2h-.12l.76.21.12.09.44,1.06v-.11a1.54,1.54,0,0,0-1.5-1.5,1.51,1.51,0,0,0-1.5,1.5A1.79,1.79,0,0,0,160,97.9a1.72,1.72,0,0,0,1.78,0,1.5,1.5,0,0,0,.54-2.05l-2.64-3.42A7.57,7.57,0,0,1,158,89.5l-2.2,1.7A38.48,38.48,0,0,1,160,93.75c.62.44,1.22.9,1.81,1.39a6.15,6.15,0,0,0,2.07,1.48,1.78,1.78,0,0,0,2.21-1.8,5.86,5.86,0,0,0-1.22-2.52l-2.78-4.57-2.05,2A15.86,15.86,0,0,1,164,92.6c.68.6,1.37,1.2,2.1,1.76a4.77,4.77,0,0,0,2.53,1.29,2,2,0,0,0,2.08-2.09,6.47,6.47,0,0,0-1.1-2.74l-2.92-5.55a1.5,1.5,0,1,0-2.59,1.52Z" fill="#ff825c"/></svg>