<svg version="1.1" id="レイヤー_1" xmlns="http://www.w3.org/2000/svg" x="0" y="0" viewBox="0 0 248 358.5" xml:space="preserve"><linearGradient id="SVGID_1_" gradientUnits="userSpaceOnUse" x1="24.08" y1="133.946" x2="247.975" y2="133.946" gradientTransform="matrix(1 0 0 -1 0 360)"><stop offset="0" style="stop-color:#4db0bf"/><stop offset=".17" style="stop-color:#56b5c1"/><stop offset=".45" style="stop-color:#70c1c6"/><stop offset=".81" style="stop-color:#99d4ce"/><stop offset="1" style="stop-color:#b1e0d3"/></linearGradient><path fill="url('#SVGID_1_')" d="M225.7 241.1c-10.1-41.1-7.7-65.8-30.1-100.5-3.1-4.9-6.4-9.6-10.8-13.1-3.1-2.6-6.3-4.9-9.6-7.2-.6 4.8-6.9 8.6-14.6 8.6-8.1 0-14.7-4.2-14.7-9.4 0-.5.1-1 .2-1.4-7.9 3.1-14.7 9.3-22.6 18-15.5 16.9-19.8 33.4-27.9 44.3-21.5 29-48.6 40.9-71.6 105 12 14.7 28 25.3 44.9 32.4s34.9 10.9 52.9 13.4c22.2 3.1 45 4.3 67-.3s43.5-15.2 59-33.1c1.6-13.6-18.7-43-22.1-56.7z"/><path fill="#FFEBDB" d="M160.6 129c7.7 0 14-3.8 14.6-8.6-4.3-2.7-9.4-4.5-17.1-4.5-4.1 0-8.2.7-12 2.2-.1.5-.2 1-.2 1.4.1 5.3 6.6 9.5 14.7 9.5z"/><path fill="#FFEBDB" d="m156.1 105.4-1.9 16.8h12.6l-3.5-19.5zM152.1 315.4c.7 6.9 1.2 14 1.4 21 .1 6 .1 12.3-2.9 17.2-1.2 2.2-3.3 3.9-5.7 4.6-3.4.7-6.8-1.7-8.6-4.9s-2.3-7.1-2.5-10.8c-.4-6.2 0-12.5 1.1-18.6.6-3.4 1.4-6.9 3.3-9.6s4.8-4.9 8-4.7c2.9.6 5.4 2.9 5.9 5.8z"/><path fill="#FFEBDB" d="M142.7 308.5c.9 8.6.8 17.3-.1 25.8-.9 8-2.9 16.3-8.5 21.5-3.1 2.7-7.9 4.1-10.8 1.1-1.1-1.3-1.9-2.9-2.3-4.6-2.8-9.4-2.6-19.5-1.3-29.2.9-6.7 2.4-13.7 6.9-18.2 1.3-1.4 3-2.5 4.9-3 5-1.3 10.4 2.9 11.6 8.3-.2 0-.2.1-.4-1.7z"/><linearGradient id="SVGID_2_" gradientUnits="userSpaceOnUse" x1="24.08" y1="133.829" x2="247.92" y2="133.829" gradientTransform="matrix(1 0 0 -1 0 360)"><stop offset="0" style="stop-color:#437da6"/><stop offset=".23" style="stop-color:#4c86ab"/><stop offset=".61" style="stop-color:#66a0b7"/><stop offset="1" style="stop-color:#87c1c7"/></linearGradient><path fill="url('#SVGID_2_')" d="M188.9 331c22-4.6 43.5-15.2 59-33.1-5.1-5.2-11.7-8.9-18.4-11.4-9.9-3.6-20.2-5.3-30.1-8.7-29-9.8-53.1-35.2-63.2-66.5-9.9-30.4-6.2-65.7 9.4-93-7.7 3.1-14.4 9.3-22.2 17.8-15.4 16.9-19.7 33.3-27.9 44.2-21.6 29-48.6 40.9-71.6 105.1 12 14.7 28 25.3 44.9 32.4s34.9 11 52.9 13.4c22.4 3.2 45.2 4.3 67.2-.2z"/><path fill="#FFEBDB" d="M168.6 230.9c-.6 3.7.7 7.4 2 10.7 1 2.6 2 5.2 3 7.7.4.9.6 1.9.6 2.9-.2 2-2 3.4-4 3.2-.2 0-.4-.1-.5-.1-2.3-.5-4.2-2.4-5.9-4.3-2.6-2.6-4.8-5.5-6.4-8.8-1.7-3.6-2.1-7.8-1-11.6 1.2-3.8 4.6-6.6 7.7-5.7 2.3.6 4.9 3.8 4.5 6z"/><linearGradient id="SVGID_3_" gradientUnits="userSpaceOnUse" x1="134.538" y1="471.697" x2="242.024" y2="471.697" gradientTransform="scale(1 -1) rotate(-21.351 -1571.786 285.624)"><stop offset="0" style="stop-color:#4db0bf"/><stop offset=".17" style="stop-color:#56b5c1"/><stop offset=".45" style="stop-color:#70c1c6"/><stop offset=".81" style="stop-color:#99d4ce"/><stop offset="1" style="stop-color:#b1e0d3"/></linearGradient><path fill="url('#SVGID_3_')" d="M150.1 135.7c2.4 12.7-.2 26.4 2.4 39 4 19.3 19.1 32.8 21.5 52.4.2 1 .2 2.1 0 3.1-.3 1.1-.9 2.1-1.7 2.9-3.1 3.5-7.4 4.9-11.5 6-13.5 3.8-27.6 6.5-41.2 3.8-14.8-2.9-27.3-12.8-33.5-26.6-5.4-12.2-5.9-27.2-3.5-41.1s7.6-26.7 13.1-39.2c2.9-6.6 18.9-20.4 24.9-21.2 8.4-1 17.3-3 22.8 4.8 3.4 4.9 5.6 10.3 6.7 16.1z"/><linearGradient id="SVGID_4_" gradientUnits="userSpaceOnUse" x1="134.595" y1="471.703" x2="202.258" y2="471.703" gradientTransform="scale(1 -1) rotate(-21.351 -1571.786 285.624)"><stop offset="0" style="stop-color:#5199b3"/><stop offset=".34" style="stop-color:#56a1b7"/><stop offset=".85" style="stop-color:#64b7c3"/><stop offset="1" style="stop-color:#69bec7"/></linearGradient><path fill="url('#SVGID_4_')" d="M119.7 243c2.1.4 4.2.7 6.3.9-.8-10.9-3.9-21.6-6.4-32.1-3.4-15-5.6-30.9-3.2-46.5s9.9-30.6 21.4-37.3c2.8-1.7 6-2.8 9-2 .1 0 .2.1.3.1-1-2.3-2.2-4.5-3.6-6.5-5.5-7.8-14.4-5.8-22.8-4.8-9.7 1.6-19.7 10.6-24.9 21.2-5.5 12.5-10.7 25.4-13.1 39.3s-1.9 28.9 3.5 41.1c6.2 13.8 18.7 23.8 33.5 26.6z"/><path fill="#FFEBDB" d="M162.2 5.1c7.9 2 15.1-3.5 19.9 3.2 9.2 12.4 13.6 27.7 12.6 43.1-.2 3.1-.6 6.2.3 9.3.9 2.8 2.9 5.1 3.8 7.9 1.5 4.3.4 9.1-1.4 13.3-5.8 13.5-18.5 23.7-32.8 27s-29.9-.2-42.4-8.3C105.5 88.3 97 65.7 101.6 45.5c2.4-10.8 7.4-9.2 13.8-18.2 5.6-7.8 12-15.4 20.3-20.3s17.8-4.1 26.5-1.9z"/><path fill="#787575" d="M193.7 18.5c-4.8-7.3-7.4-12.1-16.3-15.2-5.2-1.9-10.6-3-16.1-3.3-6.8-.1-13.6 1.3-19.8 4.1-16.6 7.2-27.8 22-33.1 37.9-.6 1.9-1.1 3.8-1.5 5.7-11 14.5-22.1 29-36.7 40.7-13.5 10.8-29.7 19.5-39.2 33.4-6.4 9.4-9 21.1-5.5 31.6 3.6 10.1 12 17.8 22.4 20.5-8.4 6-18.6 10-28.8 13.3C13.3 189.1 7.2 191 3 195c-1.5 1.3-2.5 3.1-2.9 5-.3 2 .6 4 1.6 5.9 6.2 11 19.6 18.5 33.3 18.7 2.7.2 5.5-.3 8-1.4 3.1-1.5 5.1-4.2 6.8-7 6.8-10.8 11.3-22.8 13.2-35.4 3 .4 6.1.5 9.1.3 8.8-.3 17.7-1.1 26.1-3.7 19.5-6.1 34-21.7 41.3-38.9s8.6-36.1 8.2-54.5c-.1-4.3-.3-8.7-.5-13 2 .1 4.1-.2 6-.8 5-1.6 13.5-9.2 16.7-12.9 10.1-11.6 17.5-.4 16.1-15.1 8.5 5.4 4.5-4.8 8.6 2 6-4.7 3.2-19.4-.9-25.7z"/><path fill="#6B6066" d="M55.1 183.4c.7.2 1.3.3 2 .4-2.2-4.4-7.6-6.3-13.1-6.9l.8-.8c-7.7 4.8-16.7 8.2-25.6 11.1-5.8 1.9-11.9 3.8-16.1 7.8-1.5 1.3-2.6 3-2.9 5-.3 2.1.6 4 1.6 5.9 1 1.7 2.2 3.4 3.5 4.9 10.5-7.1 22.4-13.4 35.2-11.9 4.1.5 8 1.7 12.1 1.8 2 0 3.9-.4 5.8-1.1 1.2-3.3 2.3-6.6 3.2-10.1-1.9-2.5-4.1-4.5-6.5-6.1zM163.7 22.7c5.3-5.9 10.8-12.7 11.5-20.1-4.5-1.5-9.2-2.4-13.9-2.6-6.8-.2-19.6 1-25.8 3.7-15.9 6.9-26.5 16.9-33.8 30.9C90.2 56.4 84.3 77 70.3 88.4c-13.5 10.8-29.7 19.5-39.2 33.4-6.4 9.4-9 21.1-5.5 31.7 3.5 9.8 11.5 17.3 21.5 20.2 5.8-6.5 10-14.9 13.6-22.6 10.4-21.8 22.7-43 38.3-62.1 19.6-23.7 43.9-43.6 64.7-66.3z"/><path fill="#FFDD63" d="M62.3 177.9c14.9-6.6 31.8-6.3 46.5.7.4.1.8.4 1.1.8.5.7.1 1.6-.4 2.3-2.8 5.1-5.2 10.5-7 16.1-1.5 4.7-2.9 9.8-7 13.1-5.1 4.2-13.2 4.2-19.6 1.8s-11.4-7.1-16.1-11.5c-3.6-3.4-7.5-7.5-7.1-12.2.5-5.4 5.9-9.4 9.6-11.1z"/><path fill="#F5BE40" d="M56.8 186.4c7.1-1 14.3.6 21 2.7 4.7 1.4 9.2 3.3 13.5 5.8.7.4 1.4.9 2.1 1.4.3.3.7.6.7 1 .1.7-.8 1.2-1.6 1.1-.7-.2-1.4-.5-2-1-2.3-1.6-4.9-2.8-7.6-3.6-1.5-.4-3.1-.7-4.6-.6-2.2.1-4.3 1-6.5 1.3-5.4 1-11-.8-14.8-4.7-.5-.5-.8-1.1-.9-1.7 0-.8.4-1.7.7-1.7z"/><path fill="#FFDD63" d="M49.7 180.7c1.6-13.5-5.8-27.7-18.4-35.1-4.1-2.3-8.4-4.3-12.9-5.8-2.5-1-5-1.9-7.4-2.9-.4-.2-.9-.3-1.4-.4-1.6-.1-2.7 1.5-3.2 2.9-3 7.8-1.2 16.5-2.3 24.7-.5 3.7-1.5 7.3-2 11-.2 1.1-.2 2.2.2 3.3.7 1.4 1.7 2.5 3.1 3.2 6.9 4.4 15 6.5 23.2 6 5.4-.3 10.8-1.8 16.1-.6.9.3 1.8.4 2.7.3 2.6-.5 2-4.3 2.3-6.6z"/><path fill="#F5BE40" d="M44.6 177.9c-7.5-7.5-16.2-13.6-25.7-18.1-1.6-.9-3.3-1.3-5.1-1.3-.3 0-.6.1-.9.3-.4.6.4 1.2 1.1 1.4 3.6 1.5 6.6 4 8.8 7.1.8 1.2 1.4 2.4 2.1 3.5 1.4 2 3.1 3.8 5 5.4 1.9 1.9 4.1 3.5 6.6 4.6 2.4 1 4.9 1.4 7.5 1.1.7-.1 1.6-.1 2-.8.6-.8-.7-2.5-1.4-3.2z"/><path fill="#FFDD63" d="M49.1 174.4c-2.5.6-5.2 5.7-6.8 9.2-.9 2-2.7 3.4-1.3 5.2.9 1.2 9.1 7.5 12.6 5.2 2.5-1.6 2.9-3.6 3.5-5.9.4-1.3 2.3-6.8 1.8-8.4-.4-1.3-7.1-5.9-9.8-5.3z"/><path fill="#F5BE40" d="M53.5 194c2.5-1.6 2.9-3.6 3.5-5.9.4-1.3 2.3-6.8 1.8-8.4 0-.1-.2-.3-.3-.5-.1 0-.3 0-.4.1-.2.2-.4.5-.5.8-.4 1.7-1.3 3.2-2.6 4.4-1.6 1.2-3.6 1.9-5.7 1.9s-4.2-.2-6.2-.4c-.6-.1-1.2-.1-1.8.1-.3.1-.6.2-.8.3-.4.7-.2 1.6.3 2.3 1.1 1.3 9.3 7.6 12.7 5.3z"/><ellipse fill="#504D7A" cx="177.6" cy="71.8" rx="3.8" ry="6.8"/><path fill="#FF825C" d="m164.1 86.8 2.1 3.9 1 1.9c.1.3.3.7.5 1-.1-.2.1 0 0 .1s.1-.4 0-.1l.4-.7c1 .1 1.3 0 .8-.2l-.2-.1c-.2-.1-.3-.2-.5-.3s-.5-.4-.8-.6c-.6-.5-1.2-1.1-1.9-1.6-1.2-1.1-2.5-2.1-4-2.8-.6-.3-1.3-.2-1.8.2-.5.5-.6 1.2-.2 1.8l1.9 3.1.9 1.5.5.8.2.4c.2.3.2.3.1-.1l.2-.8-.1.1.5-.5-.1.1.8-.2c.5.3.7.3.4.1l-.2-.2-.3-.3-1-.8c-.6-.5-1.3-1-2-1.5-1.3-.9-2.6-1.7-4-2.4-.7-.4-1.6-.1-2.1.6-.2.3-.2.7-.1 1.1.3 1.3 1 2.4 1.8 3.4l2.8 3.6.5-2.1-.1.1.8-.2h-.1l.8.2.1.1.4 1.1v-.1c0-.8-.7-1.5-1.5-1.5s-1.5.7-1.5 1.5c0 .6.4 1.2.9 1.5.5.3 1.2.3 1.8 0 .7-.4 1-1.3.5-2.1l-2.6-3.4c-.8-.8-1.3-1.8-1.7-2.9l-2.2 1.7c1.5.8 2.9 1.6 4.2 2.6.6.4 1.2.9 1.8 1.4.6.6 1.3 1.1 2.1 1.5 1 .2 1.9-.3 2.2-1.3 0-.2.1-.3.1-.5-.2-.9-.6-1.8-1.2-2.5l-2.8-4.6-2.1 2c1.5.7 2.8 1.7 4 2.9l2.1 1.8c.7.7 1.6 1.1 2.5 1.3 1.1 0 2-.8 2.1-1.9v-.2c-.2-1-.5-1.9-1.1-2.7l-2.9-5.6c-.4-.7-1.3-1-2.1-.5-.8.3-1 1.2-.6 1.9z"/></svg>