<?xml version="1.0" encoding="utf-8"?>
<!-- Generator: Adobe Illustrator 25.1.0, SVG Export Plug-In . SVG Version: 6.00 Build 0)  -->
<svg version="1.1" id="レイヤー_1" xmlns="http://www.w3.org/2000/svg" xmlns:xlink="http://www.w3.org/1999/xlink" x="0px"
	 y="0px" viewBox="0 0 248 358.5" enable-background="new 0 0 248 358.5" xml:space="preserve">
<linearGradient id="SVGID_1_" gradientUnits="userSpaceOnUse" x1="24.08" y1="133.9465" x2="247.9752" y2="133.9465" gradientTransform="matrix(1 0 0 -1 0 360)">
	<stop  offset="0" style="stop-color:#4DB0BF"/>
	<stop  offset="0.17" style="stop-color:#56B5C1"/>
	<stop  offset="0.45" style="stop-color:#70C1C6"/>
	<stop  offset="0.81" style="stop-color:#99D4CE"/>
	<stop  offset="1" style="stop-color:#B1E0D3"/>
</linearGradient>
<path fill="url(#SVGID_1_)" d="M225.7,241.1c-10.1-41.1-7.7-65.8-30.1-100.5c-3.1-4.9-6.4-9.6-10.8-13.1c-3.1-2.6-6.3-4.9-9.6-7.2
	c-0.6,4.8-6.9,8.6-14.6,8.6c-8.1,0-14.7-4.2-14.7-9.4c0-0.5,0.1-1,0.2-1.4c-7.9,3.1-14.7,9.3-22.6,18
	c-15.5,16.9-19.8,33.4-27.9,44.3c-21.5,29-48.6,40.9-71.6,105c12,14.7,28,25.3,44.9,32.4s34.9,10.9,52.9,13.4
	c22.2,3.1,45,4.3,67-0.3s43.5-15.2,59-33.1C249.4,284.2,229.1,254.8,225.7,241.1z"/>
<path fill="#FFEBDB" d="M160.6,129c7.7,0,14-3.8,14.6-8.6c-4.3-2.7-9.4-4.5-17.1-4.5c-4.1,0-8.2,0.7-12,2.2c-0.1,0.5-0.2,1-0.2,1.4
	C146,124.8,152.5,129,160.6,129z"/>
<polygon fill="#FFEBDB" points="156.1,105.4 154.2,122.2 166.8,122.2 163.3,102.7 "/>
<path fill="#FFEBDB" d="M152.1,315.4c0.7,6.9,1.2,14,1.4,21c0.1,6,0.1,12.3-2.9,17.2c-1.2,2.2-3.3,3.9-5.7,4.6
	c-3.4,0.7-6.8-1.7-8.6-4.9s-2.3-7.1-2.5-10.8c-0.4-6.2,0-12.5,1.1-18.6c0.6-3.4,1.4-6.9,3.3-9.6s4.8-4.9,8-4.7
	C149.1,310.2,151.6,312.5,152.1,315.4z"/>
<path fill="#FFEBDB" d="M142.7,308.5c0.9,8.6,0.8,17.3-0.1,25.8c-0.9,8-2.9,16.3-8.5,21.5c-3.1,2.7-7.9,4.1-10.8,1.1
	c-1.1-1.3-1.9-2.9-2.3-4.6c-2.8-9.4-2.6-19.5-1.3-29.2c0.9-6.7,2.4-13.7,6.9-18.2c1.3-1.4,3-2.5,4.9-3c5-1.3,10.4,2.9,11.6,8.3
	C142.9,310.2,142.9,310.3,142.7,308.5z"/>
<linearGradient id="SVGID_2_" gradientUnits="userSpaceOnUse" x1="24.08" y1="133.8293" x2="247.92" y2="133.8293" gradientTransform="matrix(1 0 0 -1 0 360)">
	<stop  offset="0" style="stop-color:#437DA6"/>
	<stop  offset="0.23" style="stop-color:#4C86AB"/>
	<stop  offset="0.61" style="stop-color:#66A0B7"/>
	<stop  offset="1" style="stop-color:#87C1C7"/>
</linearGradient>
<path fill="url(#SVGID_2_)" d="M188.9,331c22-4.6,43.5-15.2,59-33.1c-5.1-5.2-11.7-8.9-18.4-11.4c-9.9-3.6-20.2-5.3-30.1-8.7
	c-29-9.8-53.1-35.2-63.2-66.5c-9.9-30.4-6.2-65.7,9.4-93c-7.7,3.1-14.4,9.3-22.2,17.8c-15.4,16.9-19.7,33.3-27.9,44.2
	c-21.6,29-48.6,40.9-71.6,105.1c12,14.7,28,25.3,44.9,32.4s34.9,11,52.9,13.4C144.1,334.4,166.9,335.5,188.9,331z"/>
<path fill="#FFEBDB" d="M168.6,230.9c-0.6,3.7,0.7,7.4,2,10.7c1,2.6,2,5.2,3,7.7c0.4,0.9,0.6,1.9,0.6,2.9c-0.2,2-2,3.4-4,3.2
	c-0.2,0-0.4-0.1-0.5-0.1c-2.3-0.5-4.2-2.4-5.9-4.3c-2.6-2.6-4.8-5.5-6.4-8.8c-1.7-3.6-2.1-7.8-1-11.6c1.2-3.8,4.6-6.6,7.7-5.7
	C166.4,225.5,169,228.7,168.6,230.9z"/>
<linearGradient id="SVGID_3_" gradientUnits="userSpaceOnUse" x1="134.5383" y1="471.6969" x2="242.0237" y2="471.6969" gradientTransform="matrix(0.9314 0.3641 0.3641 -0.9314 -211.879 552.6828)">
	<stop  offset="0" style="stop-color:#4DB0BF"/>
	<stop  offset="0.17" style="stop-color:#56B5C1"/>
	<stop  offset="0.45" style="stop-color:#70C1C6"/>
	<stop  offset="0.81" style="stop-color:#99D4CE"/>
	<stop  offset="1" style="stop-color:#B1E0D3"/>
</linearGradient>
<path fill="url(#SVGID_3_)" d="M150.1,135.7c2.4,12.7-0.2,26.4,2.4,39c4,19.3,19.1,32.8,21.5,52.4c0.2,1,0.2,2.1,0,3.1
	c-0.3,1.1-0.9,2.1-1.7,2.9c-3.1,3.5-7.4,4.9-11.5,6c-13.5,3.8-27.6,6.5-41.2,3.8c-14.8-2.9-27.3-12.8-33.5-26.6
	c-5.4-12.2-5.9-27.2-3.5-41.1s7.6-26.7,13.1-39.2c2.9-6.6,18.9-20.4,24.9-21.2c8.4-1,17.3-3,22.8,4.8
	C146.8,124.5,149,129.9,150.1,135.7z"/>
<linearGradient id="SVGID_4_" gradientUnits="userSpaceOnUse" x1="134.5951" y1="471.7034" x2="202.2583" y2="471.7034" gradientTransform="matrix(0.9314 0.3641 0.3641 -0.9314 -211.879 552.6828)">
	<stop  offset="0" style="stop-color:#5199B3"/>
	<stop  offset="0.34" style="stop-color:#56A1B7"/>
	<stop  offset="0.85" style="stop-color:#64B7C3"/>
	<stop  offset="1" style="stop-color:#69BEC7"/>
</linearGradient>
<path fill="url(#SVGID_4_)" d="M119.7,243c2.1,0.4,4.2,0.7,6.3,0.9c-0.8-10.9-3.9-21.6-6.4-32.1c-3.4-15-5.6-30.9-3.2-46.5
	s9.9-30.6,21.4-37.3c2.8-1.7,6-2.8,9-2c0.1,0,0.2,0.1,0.3,0.1c-1-2.3-2.2-4.5-3.6-6.5c-5.5-7.8-14.4-5.8-22.8-4.8
	c-9.7,1.6-19.7,10.6-24.9,21.2c-5.5,12.5-10.7,25.4-13.1,39.3s-1.9,28.9,3.5,41.1C92.4,230.2,104.9,240.2,119.7,243z"/>
<path fill="#FFEBDB" d="M162.2,5.1c7.9,2,15.1-3.5,19.9,3.2c9.2,12.4,13.6,27.7,12.6,43.1c-0.2,3.1-0.6,6.2,0.3,9.3
	c0.9,2.8,2.9,5.1,3.8,7.9c1.5,4.3,0.4,9.1-1.4,13.3c-5.8,13.5-18.5,23.7-32.8,27s-29.9-0.2-42.4-8.3C105.5,88.3,97,65.7,101.6,45.5
	c2.4-10.8,7.4-9.2,13.8-18.2c5.6-7.8,12-15.4,20.3-20.3S153.5,2.9,162.2,5.1z"/>
<path fill="#787575" d="M193.7,18.5c-4.8-7.3-7.4-12.1-16.3-15.2c-5.2-1.9-10.6-3-16.1-3.3c-6.8-0.1-13.6,1.3-19.8,4.1
	c-16.6,7.2-27.8,22-33.1,37.9c-0.6,1.9-1.1,3.8-1.5,5.7c-11,14.5-22.1,29-36.7,40.7c-13.5,10.8-29.7,19.5-39.2,33.4
	c-6.4,9.4-9,21.1-5.5,31.6c3.6,10.1,12,17.8,22.4,20.5c-8.4,6-18.6,10-28.8,13.3c-5.8,1.9-11.9,3.8-16.1,7.8c-1.5,1.3-2.5,3.1-2.9,5
	c-0.3,2,0.6,4,1.6,5.9c6.2,11,19.6,18.5,33.3,18.7c2.7,0.2,5.5-0.3,8-1.4c3.1-1.5,5.1-4.2,6.8-7c6.8-10.8,11.3-22.8,13.2-35.4
	c3,0.4,6.1,0.5,9.1,0.3c8.8-0.3,17.7-1.1,26.1-3.7c19.5-6.1,34-21.7,41.3-38.9s8.6-36.1,8.2-54.5c-0.1-4.3-0.3-8.7-0.5-13
	c2,0.1,4.1-0.2,6-0.8c5-1.6,13.5-9.2,16.7-12.9c10.1-11.6,17.5-0.4,16.1-15.1c8.5,5.4,4.5-4.8,8.6,2
	C200.6,39.5,197.8,24.8,193.7,18.5z"/>
<path fill="#6B6066" d="M55.1,183.4c0.7,0.2,1.3,0.3,2,0.4c-2.2-4.4-7.6-6.3-13.1-6.9c0.3-0.3,0.5-0.5,0.8-0.8
	c-7.7,4.8-16.7,8.2-25.6,11.1c-5.8,1.9-11.9,3.8-16.1,7.8c-1.5,1.3-2.6,3-2.9,5c-0.3,2.1,0.6,4,1.6,5.9c1,1.7,2.2,3.4,3.5,4.9
	c10.5-7.1,22.4-13.4,35.2-11.9c4.1,0.5,8,1.7,12.1,1.8c2,0,3.9-0.4,5.8-1.1c1.2-3.3,2.3-6.6,3.2-10.1C59.7,187,57.5,185,55.1,183.4z
	"/>
<path fill="#6B6066" d="M163.7,22.7c5.3-5.9,10.8-12.7,11.5-20.1c-4.5-1.5-9.2-2.4-13.9-2.6c-6.8-0.2-19.6,1-25.8,3.7
	c-15.9,6.9-26.5,16.9-33.8,30.9C90.2,56.4,84.3,77,70.3,88.4c-13.5,10.8-29.7,19.5-39.2,33.4c-6.4,9.4-9,21.1-5.5,31.7
	c3.5,9.8,11.5,17.3,21.5,20.2c5.8-6.5,10-14.9,13.6-22.6c10.4-21.8,22.7-43,38.3-62.1C118.6,65.3,142.9,45.4,163.7,22.7z"/>
<path fill="#FFDD63" d="M62.3,177.9c14.9-6.6,31.8-6.3,46.5,0.7c0.4,0.1,0.8,0.4,1.1,0.8c0.5,0.7,0.1,1.6-0.4,2.3
	c-2.8,5.1-5.2,10.5-7,16.1c-1.5,4.7-2.9,9.8-7,13.1c-5.1,4.2-13.2,4.2-19.6,1.8s-11.4-7.1-16.1-11.5c-3.6-3.4-7.5-7.5-7.1-12.2
	C53.2,183.6,58.6,179.6,62.3,177.9z"/>
<path fill="#F5BE40" d="M56.8,186.4c7.1-1,14.3,0.6,21,2.7c4.7,1.4,9.2,3.3,13.5,5.8c0.7,0.4,1.4,0.9,2.1,1.4c0.3,0.3,0.7,0.6,0.7,1
	c0.1,0.7-0.8,1.2-1.6,1.1c-0.7-0.2-1.4-0.5-2-1c-2.3-1.6-4.9-2.8-7.6-3.6c-1.5-0.4-3.1-0.7-4.6-0.6c-2.2,0.1-4.3,1-6.5,1.3
	c-5.4,1-11-0.8-14.8-4.7c-0.5-0.5-0.8-1.1-0.9-1.7C56.1,187.3,56.5,186.4,56.8,186.4z"/>
<path fill="#FFDD63" d="M49.7,180.7c1.6-13.5-5.8-27.7-18.4-35.1c-4.1-2.3-8.4-4.3-12.9-5.8c-2.5-1-5-1.9-7.4-2.9
	c-0.4-0.2-0.9-0.3-1.4-0.4c-1.6-0.1-2.7,1.5-3.2,2.9c-3,7.8-1.2,16.5-2.3,24.7c-0.5,3.7-1.5,7.3-2,11c-0.2,1.1-0.2,2.2,0.2,3.3
	c0.7,1.4,1.7,2.5,3.1,3.2c6.9,4.4,15,6.5,23.2,6c5.4-0.3,10.8-1.8,16.1-0.6c0.9,0.3,1.8,0.4,2.7,0.3C50,186.8,49.4,183,49.7,180.7z"
	/>
<path fill="#F5BE40" d="M44.6,177.9c-7.5-7.5-16.2-13.6-25.7-18.1c-1.6-0.9-3.3-1.3-5.1-1.3c-0.3,0-0.6,0.1-0.9,0.3
	c-0.4,0.6,0.4,1.2,1.1,1.4c3.6,1.5,6.6,4,8.8,7.1c0.8,1.2,1.4,2.4,2.1,3.5c1.4,2,3.1,3.8,5,5.4c1.9,1.9,4.1,3.5,6.6,4.6
	c2.4,1,4.9,1.4,7.5,1.1c0.7-0.1,1.6-0.1,2-0.8C46.6,180.3,45.3,178.6,44.6,177.9z"/>
<path fill="#FFDD63" d="M49.1,174.4c-2.5,0.6-5.2,5.7-6.8,9.2c-0.9,2-2.7,3.4-1.3,5.2c0.9,1.2,9.1,7.5,12.6,5.2
	c2.5-1.6,2.9-3.6,3.5-5.9c0.4-1.3,2.3-6.8,1.8-8.4C58.5,178.4,51.8,173.8,49.1,174.4z"/>
<path fill="#F5BE40" d="M53.5,194c2.5-1.6,2.9-3.6,3.5-5.9c0.4-1.3,2.3-6.8,1.8-8.4c0-0.1-0.2-0.3-0.3-0.5c-0.1,0-0.3,0-0.4,0.1
	c-0.2,0.2-0.4,0.5-0.5,0.8c-0.4,1.7-1.3,3.2-2.6,4.4c-1.6,1.2-3.6,1.9-5.7,1.9c-2.1,0-4.2-0.2-6.2-0.4c-0.6-0.1-1.2-0.1-1.8,0.1
	c-0.3,0.1-0.6,0.2-0.8,0.3c-0.4,0.7-0.2,1.6,0.3,2.3C41.9,190,50.1,196.3,53.5,194z"/>
<ellipse fill="#504D7A" cx="177.6" cy="71.8" rx="3.8" ry="6.8"/>
<path fill="#FF825C" d="M164.1,86.8l2.1,3.9l1,1.9c0.1,0.3,0.3,0.7,0.5,1c-0.1-0.2,0.1,0,0,0.1s0.1-0.4,0-0.1l0.4-0.7
	c1,0.1,1.3,0,0.8-0.2l-0.2-0.1c-0.2-0.1-0.3-0.2-0.5-0.3s-0.5-0.4-0.8-0.6c-0.6-0.5-1.2-1.1-1.9-1.6c-1.2-1.1-2.5-2.1-4-2.8
	c-0.6-0.3-1.3-0.2-1.8,0.2c-0.5,0.5-0.6,1.2-0.2,1.8l1.9,3.1l0.9,1.5l0.5,0.8l0.2,0.4c0.2,0.3,0.2,0.3,0.1-0.1l0.2-0.8l-0.1,0.1
	l0.5-0.5l-0.1,0.1l0.8-0.2c0.5,0.3,0.7,0.3,0.4,0.1l-0.2-0.2l-0.3-0.3l-1-0.8c-0.6-0.5-1.3-1-2-1.5c-1.3-0.9-2.6-1.7-4-2.4
	c-0.7-0.4-1.6-0.1-2.1,0.6c-0.2,0.3-0.2,0.7-0.1,1.1c0.3,1.3,1,2.4,1.8,3.4l2.8,3.6l0.5-2.1l-0.1,0.1l0.8-0.2h-0.1l0.8,0.2l0.1,0.1
	l0.4,1.1v-0.1c0-0.8-0.7-1.5-1.5-1.5c-0.8,0-1.5,0.7-1.5,1.5c0,0.6,0.4,1.2,0.9,1.5c0.5,0.3,1.2,0.3,1.8,0c0.7-0.4,1-1.3,0.5-2.1
	l-2.6-3.4c-0.8-0.8-1.3-1.8-1.7-2.9l-2.2,1.7c1.5,0.8,2.9,1.6,4.2,2.6c0.6,0.4,1.2,0.9,1.8,1.4c0.6,0.6,1.3,1.1,2.1,1.5
	c1,0.2,1.9-0.3,2.2-1.3c0-0.2,0.1-0.3,0.1-0.5c-0.2-0.9-0.6-1.8-1.2-2.5l-2.8-4.6l-2.1,2c1.5,0.7,2.8,1.7,4,2.9
	c0.7,0.6,1.4,1.2,2.1,1.8c0.7,0.7,1.6,1.1,2.5,1.3c1.1,0,2-0.8,2.1-1.9c0-0.1,0-0.1,0-0.2c-0.2-1-0.5-1.9-1.1-2.7l-2.9-5.6
	c-0.4-0.7-1.3-1-2.1-0.5C163.9,85.2,163.7,86.1,164.1,86.8L164.1,86.8z"/>
</svg>
