<svg xmlns="http://www.w3.org/2000/svg" xmlns:xlink="http://www.w3.org/1999/xlink" viewBox="0 0 760.4 840.58"><defs><linearGradient id="a" x1="822.81" y1="517.14" x2="839.91" y2="517.14" gradientTransform="translate(837.09 -483.25) rotate(68.27)" gradientUnits="userSpaceOnUse"><stop offset="0" stop-color="#95e0ed"/><stop offset="0.17" stop-color="#8cd6e4"/><stop offset="0.46" stop-color="#73bacb"/><stop offset="0.84" stop-color="#4b8da2"/><stop offset="1" stop-color="#38788f"/></linearGradient><linearGradient id="b" x1="341.92" y1="-725.8" x2="495.82" y2="-376.63" gradientTransform="matrix(1.37, 0.81, 0.21, -0.35, 213.52, -29.51)" xlink:href="#a"/><linearGradient id="c" x1="566.57" y1="-609.78" x2="720.47" y2="-260.61" gradientTransform="matrix(-0.69, -0.38, 0.23, -0.42, 1273.27, 513.09)" xlink:href="#a"/><linearGradient id="d" x1="415.33" y1="-354.29" x2="568.14" y2="-7.57" gradientTransform="matrix(-0.6, -0.8, 0.8, -0.6, 1037.08, 798.62)" xlink:href="#a"/><linearGradient id="e" x1="197.88" y1="-340.48" x2="351.78" y2="8.7" gradientTransform="translate(639.6 865.54) rotate(-68.29)" xlink:href="#a"/><linearGradient id="f" x1="287.5" y1="138.29" x2="310.03" y2="138.29" gradientTransform="matrix(1, 0, 0, 1, 0, 0)" xlink:href="#a"/><linearGradient id="g" x1="620.83" y1="383.43" x2="823.55" y2="843.36" gradientTransform="matrix(-0.79, 0.61, -0.45, -0.59, 1148.44, 25.62)" xlink:href="#a"/><linearGradient id="h" x1="746.68" y1="-301.72" x2="949.39" y2="158.21" gradientTransform="matrix(-0.56, -0.54, 0.51, -0.52, 847.6, 608.92)" xlink:href="#a"/><linearGradient id="i" x1="827.31" y1="-361.71" x2="1030.02" y2="98.22" gradientTransform="matrix(-0.57, -0.55, 0.33, -0.34, 902.28, 537.95)" xlink:href="#a"/><linearGradient id="j" x1="1785.64" y1="676.09" x2="1727.02" y2="692.89" gradientTransform="matrix(-0.59, -0.48, -0.63, 0.77, 1828.75, 515.41)" xlink:href="#a"/><linearGradient id="k" x1="-104.8" y1="-1024.26" x2="32.85" y2="-711.96" gradientTransform="matrix(0.08, 0.85, 0.86, -0.32, 1077.53, 4.34)" xlink:href="#a"/><linearGradient id="l" x1="-160.49" y1="-1334.84" x2="-22.59" y2="-1021.97" gradientTransform="matrix(0.08, 0.86, 0.64, -0.24, 1137.02, -18.74)" xlink:href="#a"/><linearGradient id="m" x1="-1037.6" y1="621.21" x2="-892.52" y2="950.38" gradientTransform="matrix(0.67, -0.15, 0.03, -0.65, 944.08, 577.4)" xlink:href="#a"/><linearGradient id="n" x1="-959.83" y1="967.9" x2="-814.61" y2="1297.4" gradientTransform="matrix(0.68, -0.15, 0.02, -0.43, 956.92, 496.15)" xlink:href="#a"/><linearGradient id="o" x1="699.59" y1="204.16" x2="902.3" y2="664.09" gradientTransform="translate(1189.67 81.2) rotate(142.36)" xlink:href="#a"/><linearGradient id="p" x1="147.46" y1="227.18" x2="507.01" y2="1042.94" gradientUnits="userSpaceOnUse"><stop offset="0" stop-color="#b8d3d6"/><stop offset="0.17" stop-color="#aeced3"/><stop offset="0.46" stop-color="#92c1cc"/><stop offset="0.84" stop-color="#65abc0"/><stop offset="1" stop-color="#50a1ba"/></linearGradient><linearGradient id="q" x1="105.17" y1="245.82" x2="464.71" y2="1061.59" xlink:href="#p"/><linearGradient id="r" x1="94.16" y1="220.84" x2="337.26" y2="772.42" gradientUnits="userSpaceOnUse"><stop offset="0" stop-color="#d8edeb"/><stop offset="0.95" stop-color="#e2f4f2"/><stop offset="1" stop-color="#e3f5f3"/></linearGradient><linearGradient id="s" x1="191.14" y1="207.93" x2="550.69" y2="1023.69" xlink:href="#p"/><linearGradient id="t" x1="349.52" y1="567.26" x2="490.36" y2="886.82" xlink:href="#r"/></defs><path d="M568.68,523.58l0-.08a3.41,3.41,0,0,1,2-4.39c68.89-25.48,173.9-69.69,183.54-83a3.42,3.42,0,0,1,5.54,4C747.51,457,628.67,505,573,525.52A3.42,3.42,0,0,1,568.68,523.58Z" fill="url(#a)"/><path d="M740.64,517c8.07-13.62-58.62-53.1-66.68-39.48s-2.81,38.8,15.6,49.7S732.58,530.62,740.64,517Z" fill="url(#b)"/><path d="M712.45,414c9-16.37,42.6,2,33.64,18.41s-27.24,31.89-36.53,26.81S703.49,430.39,712.45,414Z" fill="url(#c)"/><path d="M615,451.45c30.88-23.37,60,15.11,29.12,38.47s-74.45,42.79-82.49,32.16S584.1,474.81,615,451.45Z" fill="url(#d)"/><path d="M652.28,531.64c36.23,14.42,18.26,59.57-18,45.15s-75.69-41.84-70.72-54.3S616.05,517.22,652.28,531.64Z" fill="url(#e)"/><path d="M304.73,276.58h-.11a4.5,4.5,0,0,1-4.39-4.61c2.43-96.72-.46-246.76-12-265a4.5,4.5,0,1,1,7.6-4.82c14.69,23.21,15.39,192,13.43,270.1A4.5,4.5,0,0,1,304.73,276.58Z" fill="url(#f)"/><path d="M222.67,97.34c-23.3-30.21,27.51-69.39,50.8-39.18s39.89,75.23,25.86,86S246,127.54,222.67,97.34Z" fill="url(#g)"/><path d="M346.81,122.07c26.17-26.9,61.73,7.71,35.56,34.6S316.84,208.1,307,198.55,320.64,149,346.81,122.07Z" fill="url(#h)"/><path d="M326.94,18.49C344.08.87,380.28,36.1,363.14,53.71s-45.81,30.88-55.81,21.15S309.8,36.11,326.94,18.49Z" fill="url(#i)"/><path d="M301.32,274.06a4.5,4.5,0,0,1-3.6-7.2c33-44,106.39-137.39,122.45-145.24a4.5,4.5,0,1,1,4,8.08c-11.39,5.57-72,79.6-119.21,142.56A4.47,4.47,0,0,1,301.32,274.06Z" fill="url(#j)"/><path d="M371.53,265.4c30.17-11.69,26.75-50.88-3.42-39.18s-65.62,34.5-64.67,45.32S341.36,277.1,371.53,265.4Z" fill="url(#k)"/><path d="M409.81,201.08c22.41-8.68,19-48-3.43-39.28s-48.54,27.91-47.59,38.75S387.4,209.77,409.81,201.08Z" fill="url(#l)"/><path d="M349.32,171.87c1.13-24-28.1-17.07-29.23,6.88s4,51.17,12.12,49.27S348.18,195.83,349.32,171.87Z" fill="url(#m)"/><path d="M402.08,121.33c.75-15.69-29-8.68-29.75,7s5,32.95,13.24,31S401.34,137,402.08,121.33Z" fill="url(#n)"/><path d="M204.92,202.32c-31.37-40.68,19.31-79.76,50.68-39.09s57.66,98.23,43.67,109S236.29,243,204.92,202.32Z" fill="url(#o)"/><circle cx="290" cy="550.58" r="290" fill="url(#p)"/><path d="M457,509.23h0a41.65,41.65,0,0,0-41.65-41.65h-131A41.66,41.66,0,0,0,321,426.23h0a41.65,41.65,0,0,0-41.65-41.65H52.2A288.64,288.64,0,0,0,0,550.58v.3H415.35A41.65,41.65,0,0,0,457,509.23Z" fill="url(#q)"/><path d="M457,509.23h0a41.65,41.65,0,0,0-41.65-41.65h-131A41.66,41.66,0,0,0,321,426.23h0a41.65,41.65,0,0,0-41.65-41.65H52.2A288.64,288.64,0,0,0,0,550.58v.3H415.35A41.65,41.65,0,0,0,457,509.23Z" fill="url(#r)"/><path d="M255,639.58a38,38,0,0,0-38,38h0a38,38,0,0,0,38,38H528.49a289.23,289.23,0,0,0,37.58-76Z" fill="url(#s)"/><path d="M255,639.58a38,38,0,0,0-38,38h0a38,38,0,0,0,38,38H528.49a289.23,289.23,0,0,0,37.58-76Z" fill="url(#t)"/></svg>