<svg xmlns="http://www.w3.org/2000/svg" viewBox="0 0 170.68 163.02"><defs><linearGradient id="a" x1="85.34" y1="163.02" x2="85.34" gradientUnits="userSpaceOnUse"><stop offset="0" stop-color="#ffe75a"/><stop offset="1" stop-color="#f4b821"/></linearGradient></defs><path d="m91.67 3.94 20.9 42.34a7.08 7.08 0 0 0 5.32 3.87l46.73 6.79a7.06 7.06 0 0 1 3.92 12l-33.82 33a7.08 7.08 0 0 0-2 6.25l8 46.54a7.07 7.07 0 0 1-10.25 7.45l-41.79-22a7.09 7.09 0 0 0-6.58 0l-41.8 22a7.07 7.07 0 0 1-10.3-7.44l8-46.54a7.08 7.08 0 0 0-2-6.2L2.14 69a7.06 7.06 0 0 1 3.92-12l46.73-6.79a7.08 7.08 0 0 0 5.32-3.87L79 3.94a7.06 7.06 0 0 1 12.67 0Z" fill="url('#a')"/></svg>